<svg viewBox="0 0 400 77" fill="none" xmlns="http://www.w3.org/2000/svg">
<path d="M17.0068 56C13.7727 56 10.613 55.6491 7.52759 54.9472C4.47938 54.2084 1.97018 53.2296 0 52.0106L4.23775 42.4802C6.09642 43.5515 8.17812 44.4195 10.4829 45.0844C12.7876 45.7124 14.9994 46.0264 17.1183 46.0264C18.9398 46.0264 20.2409 45.8602 21.0215 45.5277C21.8021 45.1583 22.1924 44.6227 22.1924 43.9208C22.1924 43.1082 21.672 42.4987 20.6312 42.0923C19.6275 41.686 17.9547 41.2427 15.6128 40.7625C12.6017 40.1346 10.0925 39.4697 8.08519 38.7678C6.07783 38.029 4.33069 36.847 2.84376 35.2216C1.35682 33.5594 0.613359 31.3245 0.613359 28.5172C0.613359 26.0792 1.30107 23.8628 2.67648 21.8681C4.05189 19.8734 6.09642 18.3034 8.81007 17.1583C11.5609 16.0132 14.8879 15.4406 18.7911 15.4406C21.4676 15.4406 24.0883 15.7361 26.6532 16.3272C29.2554 16.8813 31.5415 17.7124 33.5117 18.8206L29.5528 28.2955C25.7239 26.3747 22.0995 25.4142 18.6796 25.4142C15.2968 25.4142 13.6054 26.2269 13.6054 27.8522C13.6054 28.628 14.1073 29.219 15.1109 29.6253C16.1146 29.9947 17.7688 30.4011 20.0736 30.8443C23.0474 31.3984 25.5566 32.0449 27.6012 32.7836C29.6457 33.4855 31.4114 34.6491 32.8984 36.2744C34.4225 37.8997 35.1845 40.1161 35.1845 42.9235C35.1845 45.3615 34.4968 47.5778 33.1214 49.5726C31.746 51.5303 29.6829 53.1003 26.932 54.2823C24.2184 55.4274 20.91 56 17.0068 56Z" fill="black"/>
<path d="M61.1813 54.0607C59.2854 55.1319 56.7019 55.6675 53.4306 55.6675C49.1557 55.6675 45.8659 54.6517 43.5611 52.6201C41.2564 50.5515 40.104 47.467 40.104 43.3668V35.6095H35.922V26.467H40.104V17.9894H52.7058V26.467H58.9509V35.6095H52.7058V43.2559C52.7058 44.1794 52.9474 44.8997 53.4306 45.4169C53.9139 45.934 54.5458 46.1926 55.3265 46.1926C56.4045 46.1926 57.3524 45.9156 58.1702 45.3615L61.1813 54.0607Z" fill="black"/>
<path d="M79.6552 55.6675C76.2725 55.6675 73.2243 55.0026 70.5106 53.6728C67.8341 52.3061 65.7338 50.4406 64.2097 48.0765C62.6856 45.6755 61.9236 42.9604 61.9236 39.9314C61.9236 36.9024 62.6856 34.2058 64.2097 31.8417C65.7338 29.4406 67.8341 27.5752 70.5106 26.2454C73.2243 24.9156 76.2725 24.2507 79.6552 24.2507C83.0752 24.2507 86.1234 24.9156 88.7999 26.2454C91.5135 27.5752 93.6138 29.4406 95.1007 31.8417C96.6248 34.2058 97.3869 36.9024 97.3869 39.9314C97.3869 42.9604 96.6248 45.6755 95.1007 48.0765C93.6138 50.4406 91.5135 52.3061 88.7999 53.6728C86.1234 55.0026 83.0752 55.6675 79.6552 55.6675ZM79.6552 45.9156C81.105 45.9156 82.2945 45.3984 83.2239 44.3641C84.1532 43.2929 84.6179 41.8153 84.6179 39.9314C84.6179 38.0475 84.1532 36.5884 83.2239 35.5541C82.2945 34.5198 81.105 34.0026 79.6552 34.0026C78.2055 34.0026 77.0159 34.5198 76.0866 35.5541C75.1573 36.5884 74.6926 38.0475 74.6926 39.9314C74.6926 41.8153 75.1573 43.2929 76.0866 44.3641C77.0159 45.3984 78.2055 45.9156 79.6552 45.9156Z" fill="black"/>
<path d="M117.724 55.6675C114.267 55.6675 111.163 55.0026 108.413 53.6728C105.699 52.343 103.561 50.4776 102 48.0765C100.476 45.6755 99.714 42.9604 99.714 39.9314C99.714 36.9024 100.476 34.2058 102 31.8417C103.561 29.4406 105.699 27.5752 108.413 26.2454C111.163 24.9156 114.267 24.2507 117.724 24.2507C121.442 24.2507 124.62 25.0449 127.259 26.6332C129.899 28.2216 131.72 30.4195 132.724 33.2269L122.966 37.9921C121.776 35.3325 120.011 34.0026 117.669 34.0026C116.182 34.0026 114.936 34.5198 113.933 35.5541C112.966 36.5884 112.483 38.0475 112.483 39.9314C112.483 41.8522 112.966 43.3298 113.933 44.3641C114.936 45.3984 116.182 45.9156 117.669 45.9156C120.011 45.9156 121.776 44.5858 122.966 41.9261L132.724 46.6913C131.72 49.4987 129.899 51.6966 127.259 53.285C124.62 54.8734 121.442 55.6675 117.724 55.6675Z" fill="black"/>
<path d="M150.246 45.8047L148.238 47.9657V55.1135H135.636V14H148.238V33.6148L156.992 24.8047H171.88L159.279 37.9367L172.884 55.1135H157.662L150.246 45.8047Z" fill="black"/>
<path d="M255.384 24.2507C260.737 24.2507 264.826 25.4512 267.651 27.8522C270.476 30.2164 271.889 33.8734 271.889 38.8232V55.1135H260.179V51.124C258.73 54.153 255.849 55.6675 251.537 55.6675C249.12 55.6675 247.057 55.2612 245.347 54.4485C243.674 53.5989 242.392 52.4723 241.5 51.0686C240.645 49.628 240.217 48.0211 240.217 46.248C240.217 43.2559 241.37 40.9842 243.674 39.4327C245.979 37.8813 249.473 37.1055 254.157 37.1055H259.231C258.823 34.7414 256.908 33.5594 253.488 33.5594C252.113 33.5594 250.719 33.781 249.306 34.2243C247.894 34.6306 246.685 35.2032 245.682 35.942L241.667 27.686C243.414 26.6148 245.515 25.7836 247.968 25.1926C250.459 24.5646 252.931 24.2507 255.384 24.2507ZM255.328 48.1319C256.22 48.1319 257.02 47.8918 257.726 47.4116C258.432 46.9314 258.953 46.2111 259.287 45.2507V43.1451H256.165C253.6 43.1451 252.317 43.9947 252.317 45.6939C252.317 46.3958 252.577 46.9868 253.098 47.467C253.655 47.9103 254.399 48.1319 255.328 48.1319Z" fill="black"/>
<path d="M289.323 28.0739C291.554 25.5251 294.844 24.2507 299.193 24.2507V35.3325C298.189 35.1847 297.26 35.1108 296.405 35.1108C292.093 35.1108 289.937 37.2902 289.937 41.6491V55.1135H277.335V24.8047H289.323V28.0739Z" fill="black"/>
<path d="M317.374 45.8047L315.366 47.9657V55.1135H302.765V14H315.366V33.6148L324.121 24.8047H339.009L326.407 37.9367L340.012 55.1135H324.79L317.374 45.8047Z" fill="black"/>
<path d="M373.552 39.9314C373.552 40.1161 373.496 41.095 373.385 42.8681H352.196C352.642 44.0132 353.385 44.8997 354.426 45.5277C355.467 46.1187 356.768 46.4142 358.329 46.4142C359.668 46.4142 360.783 46.248 361.675 45.9156C362.604 45.5831 363.608 45.0106 364.686 44.1979L371.266 50.7916C368.292 54.0422 363.85 55.6675 357.939 55.6675C354.259 55.6675 351.025 55.0026 348.237 53.6728C345.449 52.3061 343.293 50.4222 341.769 48.0211C340.245 45.6201 339.483 42.9235 339.483 39.9314C339.483 36.9024 340.226 34.2058 341.713 31.8417C343.237 29.4406 345.3 27.5752 347.902 26.2454C350.542 24.9156 353.497 24.2507 356.768 24.2507C359.854 24.2507 362.66 24.8602 365.188 26.0792C367.753 27.2982 369.779 29.0897 371.266 31.4538C372.79 33.8179 373.552 36.6438 373.552 39.9314ZM356.88 32.7836C355.579 32.7836 354.501 33.1346 353.646 33.8364C352.791 34.5383 352.233 35.5356 351.973 36.8285H361.787C361.526 35.5726 360.969 34.5937 360.114 33.8918C359.259 33.153 358.181 32.7836 356.88 32.7836Z" fill="black"/>
<path d="M400 54.0607C398.104 55.1319 395.521 55.6675 392.249 55.6675C387.974 55.6675 384.685 54.6517 382.38 52.6201C380.075 50.5515 378.923 47.467 378.923 43.3668V35.6095H374.741V26.467H378.923V17.9894H391.524V26.467H397.77V35.6095H391.524V43.2559C391.524 44.1794 391.766 44.8997 392.249 45.4169C392.733 45.934 393.365 46.1926 394.145 46.1926C395.223 46.1926 396.171 45.9156 396.989 45.3615L400 54.0607Z" fill="black"/>
<path fill-rule="evenodd" clip-rule="evenodd" d="M221.379 37.5079L221.491 55.2953H233.479L233.367 16.2633H222.55L210.171 37.0618L197.458 16.2633H186.641L186.641 60.5717H176.573L193.001 77.0001L209.43 60.5717H198.629L198.629 38.1212L207.105 51.7824H212.904L221.379 37.5079Z" fill="#EE6055"/>
<path fill-rule="evenodd" clip-rule="evenodd" d="M228.626 0L212.197 16.4284L222.452 16.4284L210.171 37.0618L204.066 46.8538L207.105 51.7824H212.904L221.379 37.5078L221.491 55.2953H233.479L233.368 16.4284L245.054 16.4284L228.626 0Z" fill="#60D394"/>
</svg>
